<svg width="134" height="76" viewBox="0 0 134 76" fill="none" xmlns="http://www.w3.org/2000/svg">
<g id="FotterButton3">
<mask id="path-1-outside-1_188_18" maskUnits="userSpaceOnUse" x="0" y="0" width="143" height="76" fill="black">
<rect fill="white" width="143" height="76"/>
<path d="M137 70C137 53.0261 130.099 36.7475 117.815 24.7452C105.532 12.7428 88.8717 6 71.5 6C54.1283 6 37.4681 12.7428 25.1845 24.7452C12.9009 36.7475 6 53.0261 6 70L71.5 70H137Z"/>
</mask>
<path d="M137 70C137 53.0261 130.099 36.7475 117.815 24.7452C105.532 12.7428 88.8717 6 71.5 6C54.1283 6 37.4681 12.7428 25.1845 24.7452C12.9009 36.7475 6 53.0261 6 70L71.5 70H137Z" fill="#76B0E0"/>
<path d="M137 70C137 53.0261 130.099 36.7475 117.815 24.7452C105.532 12.7428 88.8717 6 71.5 6C54.1283 6 37.4681 12.7428 25.1845 24.7452C12.9009 36.7475 6 53.0261 6 70L71.5 70H137Z" stroke="#C1DCF1" stroke-width="12" mask="url(#path-1-outside-1_188_18)"/>
</g>
</svg>
