<svg width="41" height="41" viewBox="0 0 41 41" fill="none" xmlns="http://www.w3.org/2000/svg">
<g id="game-icons:speaker">
<path id="Vector" d="M22.0234 8L14.5234 15.5H7.02344V25.5H14.5234L22.0234 33V8ZM26.0437 10.1616L25.6797 11.5199C29.7473 12.6098 32.5703 16.2887 32.5703 20.5C32.5703 24.7113 29.7473 28.3902 25.6797 29.4801L26.0437 30.8384C30.7195 29.5855 33.9766 25.3408 33.9766 20.5C33.9766 15.6591 30.7195 11.4145 26.0437 10.1616ZM25.073 13.7838L24.7091 15.1422C27.1375 15.7928 28.8203 17.9861 28.8203 20.5C28.8203 23.0139 27.1375 25.2072 24.7091 25.8578L25.073 27.2162C28.1095 26.4025 30.2266 23.6435 30.2266 20.5C30.2266 17.3565 28.1095 14.5975 25.073 13.7838ZM24.1024 17.4059L23.7386 18.7643C24.5273 18.9758 25.0703 19.6834 25.0703 20.5C25.0703 21.3166 24.5273 22.0242 23.7385 22.2357L24.1024 23.5941C25.4996 23.2197 26.4766 21.9464 26.4766 20.5C26.4766 19.0536 25.4996 17.7803 24.1024 17.4059Z" fill="#F2C254"/>
</g>
</svg>
