<svg width="164" height="49" viewBox="0 0 164 49" fill="none" xmlns="http://www.w3.org/2000/svg">
<rect width="164" height="49" rx="24" fill="#DCDEDD"/>
<path d="M55.318 33.53C55.1253 33.53 54.961 33.4677 54.825 33.343C54.689 33.2183 54.621 33.0483 54.621 32.833V26.152C54.2017 26.1973 53.7993 26.2427 53.414 26.288C53.04 26.322 52.7113 26.3503 52.428 26.373C52.2127 26.3843 52.0313 26.339 51.884 26.237C51.7367 26.135 51.6517 25.9707 51.629 25.744C51.6177 25.54 51.6743 25.3757 51.799 25.251C51.9237 25.1263 52.0937 25.0583 52.309 25.047C52.3997 25.0357 52.4903 25.03 52.581 25.03C52.6717 25.03 52.7737 25.0243 52.887 25.013C53.091 24.7523 53.3233 24.4407 53.584 24.078C53.856 23.7153 54.128 23.3357 54.4 22.939C54.1733 22.769 53.9127 22.582 53.618 22.378C53.3233 22.1627 53.0343 21.9587 52.751 21.766C52.4677 21.5733 52.2297 21.4147 52.037 21.29C51.8897 21.1993 51.7933 21.069 51.748 20.899C51.7027 20.7177 51.731 20.5533 51.833 20.406C51.935 20.2473 52.0767 20.151 52.258 20.117C52.4393 20.0717 52.6037 20.1 52.751 20.202C52.8077 20.236 52.8757 20.2813 52.955 20.338C53.0457 20.3947 53.1307 20.4513 53.21 20.508C53.3573 20.2587 53.516 19.9867 53.686 19.692C53.8673 19.386 54.0317 19.097 54.179 18.825C54.3377 18.5417 54.4623 18.315 54.553 18.145C54.655 17.9637 54.7967 17.8503 54.978 17.805C55.1707 17.7483 55.352 17.771 55.522 17.873C55.692 17.9637 55.794 18.094 55.828 18.264C55.8733 18.4227 55.8507 18.5813 55.76 18.74C55.6467 18.944 55.4993 19.1933 55.318 19.488C55.1367 19.7827 54.9497 20.083 54.757 20.389C54.5643 20.6837 54.3887 20.9557 54.23 21.205C54.3887 21.3183 54.5473 21.4373 54.706 21.562C54.8647 21.6753 55.0063 21.7773 55.131 21.868C55.403 21.46 55.6523 21.0747 55.879 20.712C56.117 20.3493 56.304 20.0433 56.44 19.794C56.5307 19.624 56.6723 19.5277 56.865 19.505C57.0577 19.471 57.2277 19.4993 57.375 19.59C57.5337 19.692 57.63 19.828 57.664 19.998C57.7093 20.168 57.681 20.3323 57.579 20.491C57.3637 20.865 57.0803 21.307 56.729 21.817C56.389 22.327 56.0207 22.854 55.624 23.398C55.2387 23.9307 54.8703 24.4293 54.519 24.894C55.335 24.8373 56.083 24.775 56.763 24.707C56.7177 24.5823 56.6667 24.469 56.61 24.367C56.5647 24.265 56.5137 24.1743 56.457 24.095C56.3777 23.9363 56.3663 23.7777 56.423 23.619C56.4797 23.449 56.5987 23.3243 56.78 23.245C56.9387 23.177 57.0973 23.177 57.256 23.245C57.4147 23.3017 57.5337 23.4093 57.613 23.568C57.7263 23.772 57.851 24.0213 57.987 24.316C58.1343 24.6107 58.2703 24.911 58.395 25.217C58.531 25.5117 58.6443 25.761 58.735 25.965C58.803 26.135 58.803 26.2937 58.735 26.441C58.6783 26.5883 58.5537 26.7017 58.361 26.781C58.191 26.849 58.021 26.8547 57.851 26.798C57.681 26.7413 57.562 26.6223 57.494 26.441C57.46 26.3503 57.4203 26.2597 57.375 26.169C57.341 26.067 57.3013 25.9593 57.256 25.846C57.0747 25.8687 56.8763 25.897 56.661 25.931C56.457 25.9537 56.2417 25.9763 56.015 25.999V32.833C56.015 33.0483 55.947 33.2183 55.811 33.343C55.675 33.4677 55.5107 33.53 55.318 33.53ZM59.653 25.88C59.4717 25.9593 59.279 25.9763 59.075 25.931C58.871 25.8857 58.7237 25.7553 58.633 25.54C58.5537 25.3473 58.5423 25.166 58.599 24.996C58.667 24.826 58.803 24.7013 59.007 24.622C59.517 24.418 60.0043 24.1857 60.469 23.925C60.9337 23.653 61.37 23.3697 61.778 23.075C61.37 22.6443 60.996 22.1683 60.656 21.647C60.316 21.1143 60.0157 20.525 59.755 19.879H58.905C58.7237 19.879 58.5707 19.8167 58.446 19.692C58.3327 19.556 58.276 19.403 58.276 19.233C58.276 19.0517 58.3327 18.8987 58.446 18.774C58.5707 18.6493 58.7237 18.587 58.905 18.587H63.614C64.294 18.587 64.8153 18.7117 65.178 18.961C65.5407 19.2103 65.739 19.5447 65.773 19.964C65.807 20.372 65.6597 20.814 65.331 21.29C64.923 21.902 64.447 22.48 63.903 23.024C64.3337 23.3073 64.787 23.5567 65.263 23.772C65.7503 23.976 66.2717 24.1573 66.827 24.316C67.0423 24.3727 67.1897 24.4973 67.269 24.69C67.3597 24.8713 67.371 25.0583 67.303 25.251C67.2237 25.4663 67.082 25.6137 66.878 25.693C66.6853 25.7723 66.4813 25.778 66.266 25.71C65.6087 25.4947 64.991 25.251 64.413 24.979C63.8463 24.6957 63.3137 24.367 62.815 23.993C61.8857 24.741 60.8317 25.37 59.653 25.88ZM58.599 32.697C58.4177 32.697 58.259 32.629 58.123 32.493C57.987 32.357 57.919 32.1983 57.919 32.017C57.919 31.8243 57.987 31.6657 58.123 31.541C58.259 31.405 58.4177 31.337 58.599 31.337H61.999V28.923H59.687C59.5057 28.923 59.347 28.855 59.211 28.719C59.075 28.583 59.007 28.4243 59.007 28.243C59.007 28.0503 59.075 27.8917 59.211 27.767C59.347 27.631 59.5057 27.563 59.687 27.563H61.999V26.084C61.999 25.8573 62.067 25.676 62.203 25.54C62.3503 25.404 62.5317 25.336 62.747 25.336C62.951 25.336 63.1267 25.404 63.274 25.54C63.4213 25.676 63.495 25.8573 63.495 26.084V27.563H65.926C66.1187 27.563 66.2773 27.631 66.402 27.767C66.538 27.8917 66.606 28.0503 66.606 28.243C66.606 28.4243 66.538 28.583 66.402 28.719C66.2773 28.855 66.1187 28.923 65.926 28.923H63.495V31.337H66.81C67.0027 31.337 67.1613 31.405 67.286 31.541C67.422 31.6657 67.49 31.8243 67.49 32.017C67.49 32.1983 67.422 32.357 67.286 32.493C67.1613 32.629 67.0027 32.697 66.81 32.697H58.599ZM52.241 31.524C52.0597 31.456 51.935 31.337 51.867 31.167C51.799 30.997 51.8047 30.8213 51.884 30.64C52.0087 30.3567 52.139 30.0337 52.275 29.671C52.411 29.3083 52.5357 28.94 52.649 28.566C52.7623 28.192 52.853 27.852 52.921 27.546C52.9663 27.3533 53.057 27.2117 53.193 27.121C53.3403 27.0303 53.5047 27.0077 53.686 27.053C53.8673 27.0983 54.0033 27.189 54.094 27.325C54.196 27.4497 54.2243 27.6083 54.179 27.801C54.0543 28.3337 53.8957 28.9003 53.703 29.501C53.5103 30.1017 53.3233 30.6287 53.142 31.082C53.0627 31.2747 52.938 31.4163 52.768 31.507C52.6093 31.5863 52.4337 31.592 52.241 31.524ZM58.395 30.691C58.2137 30.759 58.038 30.759 57.868 30.691C57.698 30.623 57.579 30.504 57.511 30.334C57.4317 30.13 57.3353 29.8693 57.222 29.552C57.12 29.2347 57.018 28.9117 56.916 28.583C56.814 28.2543 56.7233 27.9653 56.644 27.716C56.5873 27.5233 56.6043 27.359 56.695 27.223C56.7857 27.0757 56.916 26.9793 57.086 26.934C57.2673 26.8887 57.4317 26.9057 57.579 26.985C57.7263 27.053 57.8283 27.1833 57.885 27.376C57.9643 27.5913 58.055 27.852 58.157 28.158C58.259 28.4527 58.361 28.753 58.463 29.059C58.5763 29.3537 58.6783 29.6087 58.769 29.824C58.8483 30.0053 58.8483 30.181 58.769 30.351C58.701 30.521 58.5763 30.6343 58.395 30.691ZM62.832 22.157C63.0587 21.9417 63.2683 21.7207 63.461 21.494C63.6537 21.2673 63.8237 21.0407 63.971 20.814C64.4017 20.1907 64.1977 19.879 63.359 19.879H61.183C61.4097 20.3323 61.659 20.7517 61.931 21.137C62.2143 21.511 62.5147 21.851 62.832 22.157ZM69.326 29.127C69.1333 29.127 68.969 29.059 68.833 28.923C68.697 28.787 68.629 28.6227 68.629 28.43C68.629 28.2373 68.697 28.073 68.833 27.937C68.969 27.801 69.1333 27.733 69.326 27.733H70.618V23.245C70.618 22.4517 70.72 21.834 70.924 21.392C71.1393 20.95 71.4907 20.6383 71.978 20.457C72.4653 20.2757 73.117 20.185 73.933 20.185H74.103V18.417C74.103 18.1903 74.1767 18.009 74.324 17.873C74.4713 17.737 74.647 17.669 74.851 17.669C75.0437 17.669 75.2137 17.737 75.361 17.873C75.5083 18.009 75.582 18.1903 75.582 18.417V20.185H77.486V18.417C77.486 18.1903 77.5597 18.009 77.707 17.873C77.8543 17.737 78.0243 17.669 78.217 17.669C78.421 17.669 78.5967 17.737 78.744 17.873C78.8913 18.009 78.965 18.1903 78.965 18.417V20.185H79.135C79.9623 20.185 80.614 20.2757 81.09 20.457C81.566 20.6383 81.906 20.95 82.11 21.392C82.3253 21.834 82.433 22.4517 82.433 23.245V27.733H83.708C83.9007 27.733 84.065 27.801 84.201 27.937C84.337 28.073 84.405 28.2373 84.405 28.43C84.405 28.6227 84.337 28.787 84.201 28.923C84.065 29.059 83.9007 29.127 83.708 29.127H69.326ZM70.431 33.326C70.1817 33.4167 69.955 33.4337 69.751 33.377C69.547 33.3203 69.3997 33.1843 69.309 32.969C69.2183 32.7423 69.2127 32.527 69.292 32.323C69.3827 32.1303 69.5527 31.9887 69.802 31.898C70.2213 31.7393 70.6747 31.5353 71.162 31.286C71.6607 31.0367 72.1423 30.7703 72.607 30.487C73.083 30.1923 73.5023 29.909 73.865 29.637C74.0237 29.5123 74.205 29.4557 74.409 29.467C74.6243 29.4783 74.7887 29.5633 74.902 29.722C75.038 29.892 75.0833 30.079 75.038 30.283C74.9927 30.4757 74.8963 30.6343 74.749 30.759C74.3637 31.0763 73.9217 31.3993 73.423 31.728C72.9357 32.0453 72.4313 32.34 71.91 32.612C71.3887 32.8953 70.8957 33.1333 70.431 33.326ZM82.535 33.326C82.093 33.1447 81.6 32.9067 81.056 32.612C80.5233 32.3287 80.0077 32.0227 79.509 31.694C79.0103 31.3653 78.5853 31.0537 78.234 30.759C78.0867 30.6343 77.9847 30.4813 77.928 30.3C77.8827 30.1187 77.928 29.9373 78.064 29.756C78.1773 29.5973 78.336 29.5067 78.54 29.484C78.7553 29.45 78.9423 29.4953 79.101 29.62C79.4297 29.8693 79.832 30.147 80.308 30.453C80.784 30.7477 81.277 31.0253 81.787 31.286C82.297 31.5467 82.7617 31.7563 83.181 31.915C83.4077 31.9943 83.5663 32.1303 83.657 32.323C83.759 32.527 83.759 32.7423 83.657 32.969C83.555 33.1843 83.3963 33.3203 83.181 33.377C82.977 33.445 82.7617 33.428 82.535 33.326ZM72.131 27.733H74.103V25.285H72.131V27.733ZM78.965 27.733H80.937V25.285H78.965V27.733ZM75.582 27.733H77.486V25.285H75.582V27.733ZM75.582 23.925H77.486V21.579H75.582V23.925ZM72.131 23.925H74.103V21.579H73.933C73.457 21.579 73.0887 21.63 72.828 21.732C72.5673 21.8227 72.386 21.987 72.284 22.225C72.182 22.463 72.131 22.803 72.131 23.245V23.925ZM78.965 23.925H80.937V23.245C80.937 22.803 80.886 22.463 80.784 22.225C80.682 21.987 80.5007 21.8227 80.24 21.732C79.9793 21.63 79.611 21.579 79.135 21.579H78.965V23.925ZM93.16 23.16C92.9787 23.16 92.8257 23.0977 92.701 22.973C92.5877 22.8483 92.531 22.701 92.531 22.531C92.531 22.361 92.5877 22.2137 92.701 22.089C92.8257 21.953 92.9787 21.885 93.16 21.885H95.523V20.627H92.361C92.1683 20.627 92.0153 20.5647 91.902 20.44C91.7887 20.304 91.732 20.151 91.732 19.981C91.732 19.811 91.7887 19.6637 91.902 19.539C92.0153 19.403 92.1683 19.335 92.361 19.335H95.523V18.332C95.523 18.1053 95.5967 17.924 95.744 17.788C95.8913 17.652 96.0727 17.584 96.288 17.584C96.5033 17.584 96.6847 17.652 96.832 17.788C96.9793 17.924 97.053 18.1053 97.053 18.332V19.335H100.402C100.595 19.335 100.748 19.403 100.861 19.539C100.974 19.6637 101.031 19.811 101.031 19.981C101.031 20.151 100.974 20.304 100.861 20.44C100.748 20.5647 100.595 20.627 100.402 20.627H97.053V21.885H99.654C99.8467 21.885 99.9997 21.953 100.113 22.089C100.226 22.2137 100.283 22.361 100.283 22.531C100.283 22.701 100.226 22.8483 100.113 22.973C99.9997 23.0977 99.8467 23.16 99.654 23.16H93.16ZM88.876 32.765C88.23 32.765 87.72 32.6913 87.346 32.544C86.9833 32.3967 86.7227 32.1473 86.564 31.796C86.4167 31.4447 86.343 30.963 86.343 30.351C86.343 29.739 86.4167 29.2573 86.564 28.906C86.7227 28.5547 86.9833 28.3053 87.346 28.158C87.72 28.0107 88.23 27.937 88.876 27.937C89.522 27.937 90.0263 28.0107 90.389 28.158C90.763 28.3053 91.0237 28.5547 91.171 28.906C91.3183 29.2573 91.392 29.739 91.392 30.351C91.392 30.963 91.3183 31.4447 91.171 31.796C91.0237 32.1473 90.763 32.3967 90.389 32.544C90.0263 32.6913 89.522 32.765 88.876 32.765ZM92.667 27.495C92.463 27.495 92.2873 27.4327 92.14 27.308C92.004 27.172 91.936 26.9963 91.936 26.781V26.169C91.936 25.4663 92.106 24.9677 92.446 24.673C92.7973 24.367 93.3867 24.214 94.214 24.214H98.6C99.4387 24.214 100.028 24.367 100.368 24.673C100.708 24.9677 100.878 25.4663 100.878 26.169V26.781C100.878 26.9963 100.804 27.172 100.657 27.308C100.521 27.4327 100.351 27.495 100.147 27.495C99.9543 27.495 99.7843 27.4327 99.637 27.308C99.501 27.172 99.433 26.9963 99.433 26.781V26.356C99.433 26.0273 99.3593 25.8063 99.212 25.693C99.076 25.5683 98.8097 25.506 98.413 25.506H94.401C94.0157 25.506 93.7493 25.5683 93.602 25.693C93.4547 25.8063 93.381 26.0273 93.381 26.356V26.781C93.381 26.9963 93.3073 27.172 93.16 27.308C93.024 27.4327 92.8597 27.495 92.667 27.495ZM99.076 32.969C98.1807 32.969 97.563 32.8217 97.223 32.527C96.883 32.2323 96.713 31.6997 96.713 30.929V26.917C96.713 26.7017 96.781 26.5317 96.917 26.407C97.0643 26.271 97.2343 26.203 97.427 26.203C97.6197 26.203 97.784 26.271 97.92 26.407C98.0673 26.5317 98.141 26.7017 98.141 26.917V30.708C98.141 31.0253 98.2033 31.2463 98.328 31.371C98.464 31.4957 98.736 31.558 99.144 31.558C99.5407 31.558 99.8013 31.4787 99.926 31.32C100.051 31.15 100.17 30.8157 100.283 30.317C100.328 30.1243 100.43 29.9883 100.589 29.909C100.759 29.8183 100.952 29.8013 101.167 29.858C101.53 29.96 101.683 30.232 101.626 30.674C101.513 31.49 101.263 32.0737 100.878 32.425C100.493 32.7877 99.892 32.969 99.076 32.969ZM92.752 32.986C92.5707 33.0993 92.3723 33.1503 92.157 33.139C91.9417 33.1277 91.766 33.0313 91.63 32.85C91.5167 32.7027 91.4713 32.5327 91.494 32.34C91.5167 32.1587 91.6187 32.0227 91.8 31.932C92.4233 31.592 92.9107 31.1897 93.262 30.725C93.6247 30.249 93.8853 29.6937 94.044 29.059C94.2027 28.4243 94.2933 27.6933 94.316 26.866C94.3273 26.6507 94.4067 26.4863 94.554 26.373C94.7013 26.2483 94.8657 26.1917 95.047 26.203C95.2397 26.2143 95.3983 26.2823 95.523 26.407C95.6477 26.5317 95.71 26.7017 95.71 26.917C95.676 27.9143 95.5627 28.787 95.37 29.535C95.1773 30.283 94.8713 30.9347 94.452 31.49C94.0327 32.0453 93.466 32.544 92.752 32.986ZM86.02 22.157C85.8273 22.157 85.6743 22.0947 85.561 21.97C85.4477 21.834 85.391 21.681 85.391 21.511C85.391 21.341 85.4477 21.1937 85.561 21.069C85.6743 20.933 85.8273 20.865 86.02 20.865H91.477C91.6697 20.865 91.817 20.933 91.919 21.069C92.0323 21.1937 92.089 21.341 92.089 21.511C92.089 21.681 92.0323 21.834 91.919 21.97C91.817 22.0947 91.6697 22.157 91.477 22.157H86.02ZM86.853 19.811C86.6603 19.811 86.5073 19.7487 86.394 19.624C86.2807 19.488 86.224 19.3293 86.224 19.148C86.224 18.9667 86.2807 18.8137 86.394 18.689C86.5073 18.553 86.6603 18.485 86.853 18.485H90.695C90.8877 18.485 91.0407 18.553 91.154 18.689C91.2787 18.8137 91.341 18.9667 91.341 19.148C91.341 19.3293 91.2787 19.488 91.154 19.624C91.0407 19.7487 90.8877 19.811 90.695 19.811H86.853ZM86.836 24.52C86.6547 24.52 86.5017 24.4577 86.377 24.333C86.2637 24.197 86.207 24.044 86.207 23.874C86.207 23.6927 86.2637 23.5397 86.377 23.415C86.5017 23.279 86.6547 23.211 86.836 23.211H90.712C90.9047 23.211 91.0577 23.279 91.171 23.415C91.2843 23.5397 91.341 23.6927 91.341 23.874C91.341 24.044 91.2843 24.197 91.171 24.333C91.0577 24.4577 90.9047 24.52 90.712 24.52H86.836ZM86.836 26.866C86.6547 26.866 86.5017 26.8037 86.377 26.679C86.2637 26.543 86.207 26.39 86.207 26.22C86.207 26.05 86.2637 25.9027 86.377 25.778C86.5017 25.642 86.6547 25.574 86.836 25.574H90.712C90.9047 25.574 91.0577 25.642 91.171 25.778C91.2843 25.9027 91.341 26.05 91.341 26.22C91.341 26.39 91.2843 26.543 91.171 26.679C91.0577 26.8037 90.9047 26.866 90.712 26.866H86.836ZM88.876 31.507C89.3293 31.507 89.624 31.439 89.76 31.303C89.9073 31.1557 89.981 30.8383 89.981 30.351C89.981 29.8637 89.9073 29.5463 89.76 29.399C89.624 29.2517 89.3293 29.178 88.876 29.178C88.4227 29.178 88.1223 29.2517 87.975 29.399C87.839 29.5463 87.771 29.8637 87.771 30.351C87.771 30.8383 87.839 31.1557 87.975 31.303C88.1223 31.439 88.4227 31.507 88.876 31.507ZM110.483 32.221C110.336 32.0737 110.256 31.8923 110.245 31.677C110.245 31.4617 110.319 31.2803 110.466 31.133C110.953 30.6343 111.407 30.0337 111.826 29.331C112.245 28.6283 112.602 27.8973 112.897 27.138C112.342 26.9793 111.803 26.8547 111.282 26.764C110.761 26.6733 110.256 26.6053 109.769 26.56C109.316 27.4893 108.8 28.2487 108.222 28.838C107.644 29.4273 107.026 29.807 106.369 29.977C105.848 30.113 105.372 30.1357 104.941 30.045C104.51 29.943 104.165 29.7333 103.904 29.416C103.655 29.0987 103.53 28.6907 103.53 28.192C103.53 27.6253 103.706 27.1097 104.057 26.645C104.408 26.169 104.958 25.7893 105.706 25.506C106.465 25.2227 107.451 25.081 108.664 25.081H108.766C108.902 24.7297 109.032 24.35 109.157 23.942C109.282 23.534 109.395 23.1033 109.497 22.65C109.69 21.834 109.661 21.2957 109.412 21.035C109.174 20.763 108.681 20.6723 107.933 20.763C107.797 20.7743 107.621 20.797 107.406 20.831C107.191 20.8537 106.981 20.882 106.777 20.916C106.573 20.9387 106.414 20.9557 106.301 20.967C106.086 20.9783 105.899 20.916 105.74 20.78C105.581 20.644 105.491 20.4683 105.468 20.253C105.457 20.0377 105.519 19.8507 105.655 19.692C105.791 19.522 105.967 19.4313 106.182 19.42C106.397 19.3973 106.658 19.3747 106.964 19.352C107.27 19.318 107.542 19.2953 107.78 19.284C109.253 19.1933 110.239 19.4427 110.738 20.032C111.237 20.6213 111.327 21.6073 111.01 22.99C110.919 23.3753 110.817 23.755 110.704 24.129C110.602 24.4917 110.489 24.843 110.364 25.183C111.35 25.3077 112.342 25.4947 113.339 25.744C113.588 24.8373 113.719 24.0043 113.73 23.245C113.73 23.0297 113.804 22.8483 113.951 22.701C114.098 22.5537 114.28 22.48 114.495 22.48C114.71 22.4687 114.892 22.5367 115.039 22.684C115.198 22.8313 115.271 23.0127 115.26 23.228C115.249 23.704 115.203 24.1857 115.124 24.673C115.045 25.1603 114.943 25.6533 114.818 26.152C115.203 26.2653 115.583 26.39 115.957 26.526C116.331 26.6507 116.694 26.781 117.045 26.917C117.238 26.9963 117.374 27.138 117.453 27.342C117.544 27.5347 117.544 27.7273 117.453 27.92C117.374 28.124 117.232 28.2657 117.028 28.345C116.835 28.4243 116.643 28.4243 116.45 28.345C116.099 28.1977 115.747 28.0617 115.396 27.937C115.045 27.801 114.699 27.6763 114.359 27.563C114.019 28.4583 113.605 29.314 113.118 30.13C112.642 30.9347 112.126 31.626 111.571 32.204C111.424 32.3513 111.242 32.425 111.027 32.425C110.823 32.4363 110.642 32.3683 110.483 32.221ZM105.978 28.549C106.329 28.4583 106.686 28.243 107.049 27.903C107.412 27.563 107.763 27.0983 108.103 26.509C107.332 26.543 106.72 26.645 106.267 26.815C105.825 26.985 105.513 27.189 105.332 27.427C105.151 27.6537 105.06 27.8917 105.06 28.141C105.06 28.3223 105.134 28.4583 105.281 28.549C105.44 28.6283 105.672 28.6283 105.978 28.549ZM120.445 32.255C120.23 32.255 120.043 32.1757 119.884 32.017C119.737 31.8697 119.663 31.6883 119.663 31.473C119.663 31.2577 119.737 31.0763 119.884 30.929C120.043 30.7817 120.23 30.708 120.445 30.708H126.191V19.08C126.191 18.8307 126.27 18.6323 126.429 18.485C126.599 18.3377 126.797 18.264 127.024 18.264C127.251 18.264 127.443 18.3377 127.602 18.485C127.761 18.6323 127.84 18.8307 127.84 19.08V23.653H133.331C133.558 23.653 133.745 23.7323 133.892 23.891C134.051 24.0383 134.13 24.2253 134.13 24.452C134.13 24.6673 134.051 24.8543 133.892 25.013C133.745 25.1717 133.558 25.251 133.331 25.251H127.84V30.708H134.538C134.753 30.708 134.935 30.7817 135.082 30.929C135.241 31.0763 135.32 31.2577 135.32 31.473C135.32 31.6883 135.241 31.8697 135.082 32.017C134.935 32.1757 134.753 32.255 134.538 32.255H120.445ZM145.401 32.272C145.231 32.408 145.038 32.4703 144.823 32.459C144.608 32.4477 144.426 32.3627 144.279 32.204C144.132 32.034 144.064 31.8413 144.075 31.626C144.098 31.4107 144.188 31.2293 144.347 31.082C145.016 30.4927 145.514 29.8693 145.843 29.212C146.172 28.5433 146.387 27.7953 146.489 26.968C146.602 26.1407 146.659 25.1773 146.659 24.078V23.84C145.424 23.908 144.324 24.0327 143.361 24.214C143.157 24.248 142.964 24.2083 142.783 24.095C142.613 23.9703 142.505 23.806 142.46 23.602C142.426 23.3867 142.466 23.194 142.579 23.024C142.704 22.8427 142.868 22.735 143.072 22.701C143.537 22.6103 144.086 22.5367 144.721 22.48C145.356 22.412 146.002 22.3553 146.659 22.31V19.811C146.659 19.5957 146.733 19.4143 146.88 19.267C147.027 19.1083 147.209 19.029 147.424 19.029C147.639 19.029 147.821 19.1083 147.968 19.267C148.115 19.4143 148.189 19.5957 148.189 19.811V22.225C149.096 22.191 149.844 22.191 150.433 22.225C150.648 22.2363 150.824 22.3213 150.96 22.48C151.107 22.6273 151.17 22.8087 151.147 23.024C151.136 23.2393 151.051 23.4207 150.892 23.568C150.745 23.704 150.563 23.7663 150.348 23.755C149.736 23.721 149.016 23.721 148.189 23.755V24.078C148.189 25.2453 148.121 26.3277 147.985 27.325C147.849 28.311 147.577 29.2177 147.169 30.045C146.772 30.861 146.183 31.6033 145.401 32.272ZM139.791 31.796C139.576 31.8413 139.377 31.8073 139.196 31.694C139.026 31.5693 138.918 31.3993 138.873 31.184C138.737 30.504 138.629 29.6937 138.55 28.753C138.471 27.801 138.425 26.798 138.414 25.744C138.414 24.69 138.454 23.6473 138.533 22.616C138.612 21.5847 138.743 20.644 138.924 19.794C138.969 19.59 139.077 19.4313 139.247 19.318C139.428 19.1933 139.621 19.1593 139.825 19.216C140.04 19.2613 140.205 19.3747 140.318 19.556C140.431 19.726 140.465 19.913 140.42 20.117C140.25 20.9103 140.125 21.7943 140.046 22.769C139.978 23.7437 139.944 24.7353 139.944 25.744C139.955 26.7413 139.995 27.6877 140.063 28.583C140.142 29.4783 140.25 30.2433 140.386 30.878C140.431 31.0933 140.392 31.286 140.267 31.456C140.154 31.626 139.995 31.7393 139.791 31.796ZM152.677 20.253C152.564 20.3663 152.416 20.423 152.235 20.423C152.065 20.4117 151.923 20.3437 151.81 20.219C151.64 20.0263 151.453 19.8337 151.249 19.641C151.056 19.4483 150.864 19.2727 150.671 19.114C150.558 19.0233 150.49 18.9043 150.467 18.757C150.444 18.5983 150.484 18.4567 150.586 18.332C150.711 18.2073 150.847 18.145 150.994 18.145C151.153 18.145 151.3 18.1903 151.436 18.281C151.606 18.3943 151.81 18.5587 152.048 18.774C152.297 18.9893 152.513 19.182 152.694 19.352C152.819 19.4767 152.875 19.6297 152.864 19.811C152.864 19.981 152.802 20.1283 152.677 20.253ZM151.266 21.681C151.141 21.7943 150.988 21.8453 150.807 21.834C150.637 21.8227 150.495 21.749 150.382 21.613C150.065 21.2277 149.702 20.848 149.294 20.474C149.181 20.372 149.118 20.2473 149.107 20.1C149.096 19.9413 149.147 19.7997 149.26 19.675C149.373 19.5503 149.504 19.4937 149.651 19.505C149.81 19.5163 149.957 19.573 150.093 19.675C150.252 19.7883 150.45 19.9583 150.688 20.185C150.926 20.4117 151.13 20.6157 151.3 20.797C151.425 20.9217 151.481 21.0747 151.47 21.256C151.459 21.426 151.391 21.5677 151.266 21.681Z" fill="#626061"/>
<path d="M44.6046 27.7686C44.7981 27.9621 44.9068 28.2246 44.9068 28.4982C44.9068 28.7719 44.7981 29.0343 44.6046 29.2278C44.4111 29.4213 44.1487 29.5301 43.875 29.5301C43.6013 29.5301 43.3389 29.4213 43.1454 29.2278L40.7812 26.8624L38.4171 29.2278C38.2236 29.4213 37.9612 29.5301 37.6875 29.5301C37.4138 29.5301 37.1514 29.4213 36.9579 29.2278C36.7644 29.0343 36.6557 28.7719 36.6557 28.4982C36.6557 28.2246 36.7644 27.9621 36.9579 27.7686L39.3233 25.4045L36.9579 23.0403C36.7644 22.8468 36.6557 22.5844 36.6557 22.3107C36.6557 22.0371 36.7644 21.7746 36.9579 21.5811C37.1514 21.3876 37.4138 21.2789 37.6875 21.2789C37.9612 21.2789 38.2236 21.3876 38.4171 21.5811L40.7812 23.9466L43.1454 21.5811C43.3389 21.3876 43.6013 21.2789 43.875 21.2789C44.1487 21.2789 44.4111 21.3876 44.6046 21.5811C44.7981 21.7746 44.9068 22.0371 44.9068 22.3107C44.9068 22.5844 44.7981 22.8468 44.6046 23.0403L42.2392 25.4045L44.6046 27.7686ZM20.6719 19.217H17.0625C16.5155 19.217 15.9909 19.4343 15.6041 19.8211C15.2173 20.2079 15 20.7325 15 21.2795V29.5295C15 30.0765 15.2173 30.6011 15.6041 30.9879C15.9909 31.3747 16.5155 31.592 17.0625 31.592H20.6719C20.8086 31.592 20.9398 31.5377 21.0365 31.441C21.1332 31.3443 21.1875 31.2131 21.1875 31.0764V19.7326C21.1875 19.5959 21.1332 19.4647 21.0365 19.368C20.9398 19.2713 20.8086 19.217 20.6719 19.217ZM33.1951 12.2367C33.0146 12.0873 32.7885 12.0039 32.5542 12.0001C32.3199 11.9964 32.0913 12.0726 31.9061 12.2161L23.4537 18.7903C23.391 18.8379 23.34 18.8993 23.3047 18.9697C23.2694 19.0401 23.2507 19.1176 23.25 19.1964V31.6126C23.2502 31.691 23.2684 31.7684 23.303 31.8387C23.3376 31.9091 23.3878 31.9706 23.4498 32.0187L31.9022 38.5929C32.0659 38.7202 32.2642 38.7951 32.4711 38.808C32.6781 38.8209 32.8841 38.7711 33.0623 38.6651C33.2192 38.5675 33.3481 38.431 33.4364 38.2688C33.5247 38.1065 33.5695 37.9242 33.5664 37.7395V13.0617C33.5683 12.9051 33.5357 12.75 33.4708 12.6074C33.406 12.4648 33.3105 12.3382 33.1912 12.2367H33.1951Z" fill="black"/>
</svg>
