<svg width="165" height="50" viewBox="0 0 165 50" fill="none" xmlns="http://www.w3.org/2000/svg">
<rect x="0.5" y="0.5" width="164" height="49" rx="24" fill="#FEEF94"/>
<path d="M55.818 34.03C55.6253 34.03 55.461 33.9677 55.325 33.843C55.189 33.7183 55.121 33.5483 55.121 33.333V26.652C54.7017 26.6973 54.2993 26.7427 53.914 26.788C53.54 26.822 53.2113 26.8503 52.928 26.873C52.7127 26.8843 52.5313 26.839 52.384 26.737C52.2367 26.635 52.1517 26.4707 52.129 26.244C52.1177 26.04 52.1743 25.8757 52.299 25.751C52.4237 25.6263 52.5937 25.5583 52.809 25.547C52.8997 25.5357 52.9903 25.53 53.081 25.53C53.1717 25.53 53.2737 25.5243 53.387 25.513C53.591 25.2523 53.8233 24.9407 54.084 24.578C54.356 24.2153 54.628 23.8357 54.9 23.439C54.6733 23.269 54.4127 23.082 54.118 22.878C53.8233 22.6627 53.5343 22.4587 53.251 22.266C52.9677 22.0733 52.7297 21.9147 52.537 21.79C52.3897 21.6993 52.2933 21.569 52.248 21.399C52.2027 21.2177 52.231 21.0533 52.333 20.906C52.435 20.7473 52.5767 20.651 52.758 20.617C52.9393 20.5717 53.1037 20.6 53.251 20.702C53.3077 20.736 53.3757 20.7813 53.455 20.838C53.5457 20.8947 53.6307 20.9513 53.71 21.008C53.8573 20.7587 54.016 20.4867 54.186 20.192C54.3673 19.886 54.5317 19.597 54.679 19.325C54.8377 19.0417 54.9623 18.815 55.053 18.645C55.155 18.4637 55.2967 18.3503 55.478 18.305C55.6707 18.2483 55.852 18.271 56.022 18.373C56.192 18.4637 56.294 18.594 56.328 18.764C56.3733 18.9227 56.3507 19.0813 56.26 19.24C56.1467 19.444 55.9993 19.6933 55.818 19.988C55.6367 20.2827 55.4497 20.583 55.257 20.889C55.0643 21.1837 54.8887 21.4557 54.73 21.705C54.8887 21.8183 55.0473 21.9373 55.206 22.062C55.3647 22.1753 55.5063 22.2773 55.631 22.368C55.903 21.96 56.1523 21.5747 56.379 21.212C56.617 20.8493 56.804 20.5433 56.94 20.294C57.0307 20.124 57.1723 20.0277 57.365 20.005C57.5577 19.971 57.7277 19.9993 57.875 20.09C58.0337 20.192 58.13 20.328 58.164 20.498C58.2093 20.668 58.181 20.8323 58.079 20.991C57.8637 21.365 57.5803 21.807 57.229 22.317C56.889 22.827 56.5207 23.354 56.124 23.898C55.7387 24.4307 55.3703 24.9293 55.019 25.394C55.835 25.3373 56.583 25.275 57.263 25.207C57.2177 25.0823 57.1667 24.969 57.11 24.867C57.0647 24.765 57.0137 24.6743 56.957 24.595C56.8777 24.4363 56.8663 24.2777 56.923 24.119C56.9797 23.949 57.0987 23.8243 57.28 23.745C57.4387 23.677 57.5973 23.677 57.756 23.745C57.9147 23.8017 58.0337 23.9093 58.113 24.068C58.2263 24.272 58.351 24.5213 58.487 24.816C58.6343 25.1107 58.7703 25.411 58.895 25.717C59.031 26.0117 59.1443 26.261 59.235 26.465C59.303 26.635 59.303 26.7937 59.235 26.941C59.1783 27.0883 59.0537 27.2017 58.861 27.281C58.691 27.349 58.521 27.3547 58.351 27.298C58.181 27.2413 58.062 27.1223 57.994 26.941C57.96 26.8503 57.9203 26.7597 57.875 26.669C57.841 26.567 57.8013 26.4593 57.756 26.346C57.5747 26.3687 57.3763 26.397 57.161 26.431C56.957 26.4537 56.7417 26.4763 56.515 26.499V33.333C56.515 33.5483 56.447 33.7183 56.311 33.843C56.175 33.9677 56.0107 34.03 55.818 34.03ZM60.153 26.38C59.9717 26.4593 59.779 26.4763 59.575 26.431C59.371 26.3857 59.2237 26.2553 59.133 26.04C59.0537 25.8473 59.0423 25.666 59.099 25.496C59.167 25.326 59.303 25.2013 59.507 25.122C60.017 24.918 60.5043 24.6857 60.969 24.425C61.4337 24.153 61.87 23.8697 62.278 23.575C61.87 23.1443 61.496 22.6683 61.156 22.147C60.816 21.6143 60.5157 21.025 60.255 20.379H59.405C59.2237 20.379 59.0707 20.3167 58.946 20.192C58.8327 20.056 58.776 19.903 58.776 19.733C58.776 19.5517 58.8327 19.3987 58.946 19.274C59.0707 19.1493 59.2237 19.087 59.405 19.087H64.114C64.794 19.087 65.3153 19.2117 65.678 19.461C66.0407 19.7103 66.239 20.0447 66.273 20.464C66.307 20.872 66.1597 21.314 65.831 21.79C65.423 22.402 64.947 22.98 64.403 23.524C64.8337 23.8073 65.287 24.0567 65.763 24.272C66.2503 24.476 66.7717 24.6573 67.327 24.816C67.5423 24.8727 67.6897 24.9973 67.769 25.19C67.8597 25.3713 67.871 25.5583 67.803 25.751C67.7237 25.9663 67.582 26.1137 67.378 26.193C67.1853 26.2723 66.9813 26.278 66.766 26.21C66.1087 25.9947 65.491 25.751 64.913 25.479C64.3463 25.1957 63.8137 24.867 63.315 24.493C62.3857 25.241 61.3317 25.87 60.153 26.38ZM59.099 33.197C58.9177 33.197 58.759 33.129 58.623 32.993C58.487 32.857 58.419 32.6983 58.419 32.517C58.419 32.3243 58.487 32.1657 58.623 32.041C58.759 31.905 58.9177 31.837 59.099 31.837H62.499V29.423H60.187C60.0057 29.423 59.847 29.355 59.711 29.219C59.575 29.083 59.507 28.9243 59.507 28.743C59.507 28.5503 59.575 28.3917 59.711 28.267C59.847 28.131 60.0057 28.063 60.187 28.063H62.499V26.584C62.499 26.3573 62.567 26.176 62.703 26.04C62.8503 25.904 63.0317 25.836 63.247 25.836C63.451 25.836 63.6267 25.904 63.774 26.04C63.9213 26.176 63.995 26.3573 63.995 26.584V28.063H66.426C66.6187 28.063 66.7773 28.131 66.902 28.267C67.038 28.3917 67.106 28.5503 67.106 28.743C67.106 28.9243 67.038 29.083 66.902 29.219C66.7773 29.355 66.6187 29.423 66.426 29.423H63.995V31.837H67.31C67.5027 31.837 67.6613 31.905 67.786 32.041C67.922 32.1657 67.99 32.3243 67.99 32.517C67.99 32.6983 67.922 32.857 67.786 32.993C67.6613 33.129 67.5027 33.197 67.31 33.197H59.099ZM52.741 32.024C52.5597 31.956 52.435 31.837 52.367 31.667C52.299 31.497 52.3047 31.3213 52.384 31.14C52.5087 30.8567 52.639 30.5337 52.775 30.171C52.911 29.8083 53.0357 29.44 53.149 29.066C53.2623 28.692 53.353 28.352 53.421 28.046C53.4663 27.8533 53.557 27.7117 53.693 27.621C53.8403 27.5303 54.0047 27.5077 54.186 27.553C54.3673 27.5983 54.5033 27.689 54.594 27.825C54.696 27.9497 54.7243 28.1083 54.679 28.301C54.5543 28.8337 54.3957 29.4003 54.203 30.001C54.0103 30.6017 53.8233 31.1287 53.642 31.582C53.5627 31.7747 53.438 31.9163 53.268 32.007C53.1093 32.0863 52.9337 32.092 52.741 32.024ZM58.895 31.191C58.7137 31.259 58.538 31.259 58.368 31.191C58.198 31.123 58.079 31.004 58.011 30.834C57.9317 30.63 57.8353 30.3693 57.722 30.052C57.62 29.7347 57.518 29.4117 57.416 29.083C57.314 28.7543 57.2233 28.4653 57.144 28.216C57.0873 28.0233 57.1043 27.859 57.195 27.723C57.2857 27.5757 57.416 27.4793 57.586 27.434C57.7673 27.3887 57.9317 27.4057 58.079 27.485C58.2263 27.553 58.3283 27.6833 58.385 27.876C58.4643 28.0913 58.555 28.352 58.657 28.658C58.759 28.9527 58.861 29.253 58.963 29.559C59.0763 29.8537 59.1783 30.1087 59.269 30.324C59.3483 30.5053 59.3483 30.681 59.269 30.851C59.201 31.021 59.0763 31.1343 58.895 31.191ZM63.332 22.657C63.5587 22.4417 63.7683 22.2207 63.961 21.994C64.1537 21.7673 64.3237 21.5407 64.471 21.314C64.9017 20.6907 64.6977 20.379 63.859 20.379H61.683C61.9097 20.8323 62.159 21.2517 62.431 21.637C62.7143 22.011 63.0147 22.351 63.332 22.657ZM69.826 29.627C69.6333 29.627 69.469 29.559 69.333 29.423C69.197 29.287 69.129 29.1227 69.129 28.93C69.129 28.7373 69.197 28.573 69.333 28.437C69.469 28.301 69.6333 28.233 69.826 28.233H71.118V23.745C71.118 22.9517 71.22 22.334 71.424 21.892C71.6393 21.45 71.9907 21.1383 72.478 20.957C72.9653 20.7757 73.617 20.685 74.433 20.685H74.603V18.917C74.603 18.6903 74.6767 18.509 74.824 18.373C74.9713 18.237 75.147 18.169 75.351 18.169C75.5437 18.169 75.7137 18.237 75.861 18.373C76.0083 18.509 76.082 18.6903 76.082 18.917V20.685H77.986V18.917C77.986 18.6903 78.0597 18.509 78.207 18.373C78.3543 18.237 78.5243 18.169 78.717 18.169C78.921 18.169 79.0967 18.237 79.244 18.373C79.3913 18.509 79.465 18.6903 79.465 18.917V20.685H79.635C80.4623 20.685 81.114 20.7757 81.59 20.957C82.066 21.1383 82.406 21.45 82.61 21.892C82.8253 22.334 82.933 22.9517 82.933 23.745V28.233H84.208C84.4007 28.233 84.565 28.301 84.701 28.437C84.837 28.573 84.905 28.7373 84.905 28.93C84.905 29.1227 84.837 29.287 84.701 29.423C84.565 29.559 84.4007 29.627 84.208 29.627H69.826ZM70.931 33.826C70.6817 33.9167 70.455 33.9337 70.251 33.877C70.047 33.8203 69.8997 33.6843 69.809 33.469C69.7183 33.2423 69.7127 33.027 69.792 32.823C69.8827 32.6303 70.0527 32.4887 70.302 32.398C70.7213 32.2393 71.1747 32.0353 71.662 31.786C72.1607 31.5367 72.6423 31.2703 73.107 30.987C73.583 30.6923 74.0023 30.409 74.365 30.137C74.5237 30.0123 74.705 29.9557 74.909 29.967C75.1243 29.9783 75.2887 30.0633 75.402 30.222C75.538 30.392 75.5833 30.579 75.538 30.783C75.4927 30.9757 75.3963 31.1343 75.249 31.259C74.8637 31.5763 74.4217 31.8993 73.923 32.228C73.4357 32.5453 72.9313 32.84 72.41 33.112C71.8887 33.3953 71.3957 33.6333 70.931 33.826ZM83.035 33.826C82.593 33.6447 82.1 33.4067 81.556 33.112C81.0233 32.8287 80.5077 32.5227 80.009 32.194C79.5103 31.8653 79.0853 31.5537 78.734 31.259C78.5867 31.1343 78.4847 30.9813 78.428 30.8C78.3827 30.6187 78.428 30.4373 78.564 30.256C78.6773 30.0973 78.836 30.0067 79.04 29.984C79.2553 29.95 79.4423 29.9953 79.601 30.12C79.9297 30.3693 80.332 30.647 80.808 30.953C81.284 31.2477 81.777 31.5253 82.287 31.786C82.797 32.0467 83.2617 32.2563 83.681 32.415C83.9077 32.4943 84.0663 32.6303 84.157 32.823C84.259 33.027 84.259 33.2423 84.157 33.469C84.055 33.6843 83.8963 33.8203 83.681 33.877C83.477 33.945 83.2617 33.928 83.035 33.826ZM72.631 28.233H74.603V25.785H72.631V28.233ZM79.465 28.233H81.437V25.785H79.465V28.233ZM76.082 28.233H77.986V25.785H76.082V28.233ZM76.082 24.425H77.986V22.079H76.082V24.425ZM72.631 24.425H74.603V22.079H74.433C73.957 22.079 73.5887 22.13 73.328 22.232C73.0673 22.3227 72.886 22.487 72.784 22.725C72.682 22.963 72.631 23.303 72.631 23.745V24.425ZM79.465 24.425H81.437V23.745C81.437 23.303 81.386 22.963 81.284 22.725C81.182 22.487 81.0007 22.3227 80.74 22.232C80.4793 22.13 80.111 22.079 79.635 22.079H79.465V24.425ZM93.66 23.66C93.4787 23.66 93.3257 23.5977 93.201 23.473C93.0877 23.3483 93.031 23.201 93.031 23.031C93.031 22.861 93.0877 22.7137 93.201 22.589C93.3257 22.453 93.4787 22.385 93.66 22.385H96.023V21.127H92.861C92.6683 21.127 92.5153 21.0647 92.402 20.94C92.2887 20.804 92.232 20.651 92.232 20.481C92.232 20.311 92.2887 20.1637 92.402 20.039C92.5153 19.903 92.6683 19.835 92.861 19.835H96.023V18.832C96.023 18.6053 96.0967 18.424 96.244 18.288C96.3913 18.152 96.5727 18.084 96.788 18.084C97.0033 18.084 97.1847 18.152 97.332 18.288C97.4793 18.424 97.553 18.6053 97.553 18.832V19.835H100.902C101.095 19.835 101.248 19.903 101.361 20.039C101.474 20.1637 101.531 20.311 101.531 20.481C101.531 20.651 101.474 20.804 101.361 20.94C101.248 21.0647 101.095 21.127 100.902 21.127H97.553V22.385H100.154C100.347 22.385 100.5 22.453 100.613 22.589C100.726 22.7137 100.783 22.861 100.783 23.031C100.783 23.201 100.726 23.3483 100.613 23.473C100.5 23.5977 100.347 23.66 100.154 23.66H93.66ZM89.376 33.265C88.73 33.265 88.22 33.1913 87.846 33.044C87.4833 32.8967 87.2227 32.6473 87.064 32.296C86.9167 31.9447 86.843 31.463 86.843 30.851C86.843 30.239 86.9167 29.7573 87.064 29.406C87.2227 29.0547 87.4833 28.8053 87.846 28.658C88.22 28.5107 88.73 28.437 89.376 28.437C90.022 28.437 90.5263 28.5107 90.889 28.658C91.263 28.8053 91.5237 29.0547 91.671 29.406C91.8183 29.7573 91.892 30.239 91.892 30.851C91.892 31.463 91.8183 31.9447 91.671 32.296C91.5237 32.6473 91.263 32.8967 90.889 33.044C90.5263 33.1913 90.022 33.265 89.376 33.265ZM93.167 27.995C92.963 27.995 92.7873 27.9327 92.64 27.808C92.504 27.672 92.436 27.4963 92.436 27.281V26.669C92.436 25.9663 92.606 25.4677 92.946 25.173C93.2973 24.867 93.8867 24.714 94.714 24.714H99.1C99.9387 24.714 100.528 24.867 100.868 25.173C101.208 25.4677 101.378 25.9663 101.378 26.669V27.281C101.378 27.4963 101.304 27.672 101.157 27.808C101.021 27.9327 100.851 27.995 100.647 27.995C100.454 27.995 100.284 27.9327 100.137 27.808C100.001 27.672 99.933 27.4963 99.933 27.281V26.856C99.933 26.5273 99.8593 26.3063 99.712 26.193C99.576 26.0683 99.3097 26.006 98.913 26.006H94.901C94.5157 26.006 94.2493 26.0683 94.102 26.193C93.9547 26.3063 93.881 26.5273 93.881 26.856V27.281C93.881 27.4963 93.8073 27.672 93.66 27.808C93.524 27.9327 93.3597 27.995 93.167 27.995ZM99.576 33.469C98.6807 33.469 98.063 33.3217 97.723 33.027C97.383 32.7323 97.213 32.1997 97.213 31.429V27.417C97.213 27.2017 97.281 27.0317 97.417 26.907C97.5643 26.771 97.7343 26.703 97.927 26.703C98.1197 26.703 98.284 26.771 98.42 26.907C98.5673 27.0317 98.641 27.2017 98.641 27.417V31.208C98.641 31.5253 98.7033 31.7463 98.828 31.871C98.964 31.9957 99.236 32.058 99.644 32.058C100.041 32.058 100.301 31.9787 100.426 31.82C100.551 31.65 100.67 31.3157 100.783 30.817C100.828 30.6243 100.93 30.4883 101.089 30.409C101.259 30.3183 101.452 30.3013 101.667 30.358C102.03 30.46 102.183 30.732 102.126 31.174C102.013 31.99 101.763 32.5737 101.378 32.925C100.993 33.2877 100.392 33.469 99.576 33.469ZM93.252 33.486C93.0707 33.5993 92.8723 33.6503 92.657 33.639C92.4417 33.6277 92.266 33.5313 92.13 33.35C92.0167 33.2027 91.9713 33.0327 91.994 32.84C92.0167 32.6587 92.1187 32.5227 92.3 32.432C92.9233 32.092 93.4107 31.6897 93.762 31.225C94.1247 30.749 94.3853 30.1937 94.544 29.559C94.7027 28.9243 94.7933 28.1933 94.816 27.366C94.8273 27.1507 94.9067 26.9863 95.054 26.873C95.2013 26.7483 95.3657 26.6917 95.547 26.703C95.7397 26.7143 95.8983 26.7823 96.023 26.907C96.1477 27.0317 96.21 27.2017 96.21 27.417C96.176 28.4143 96.0627 29.287 95.87 30.035C95.6773 30.783 95.3713 31.4347 94.952 31.99C94.5327 32.5453 93.966 33.044 93.252 33.486ZM86.52 22.657C86.3273 22.657 86.1743 22.5947 86.061 22.47C85.9477 22.334 85.891 22.181 85.891 22.011C85.891 21.841 85.9477 21.6937 86.061 21.569C86.1743 21.433 86.3273 21.365 86.52 21.365H91.977C92.1697 21.365 92.317 21.433 92.419 21.569C92.5323 21.6937 92.589 21.841 92.589 22.011C92.589 22.181 92.5323 22.334 92.419 22.47C92.317 22.5947 92.1697 22.657 91.977 22.657H86.52ZM87.353 20.311C87.1603 20.311 87.0073 20.2487 86.894 20.124C86.7807 19.988 86.724 19.8293 86.724 19.648C86.724 19.4667 86.7807 19.3137 86.894 19.189C87.0073 19.053 87.1603 18.985 87.353 18.985H91.195C91.3877 18.985 91.5407 19.053 91.654 19.189C91.7787 19.3137 91.841 19.4667 91.841 19.648C91.841 19.8293 91.7787 19.988 91.654 20.124C91.5407 20.2487 91.3877 20.311 91.195 20.311H87.353ZM87.336 25.02C87.1547 25.02 87.0017 24.9577 86.877 24.833C86.7637 24.697 86.707 24.544 86.707 24.374C86.707 24.1927 86.7637 24.0397 86.877 23.915C87.0017 23.779 87.1547 23.711 87.336 23.711H91.212C91.4047 23.711 91.5577 23.779 91.671 23.915C91.7843 24.0397 91.841 24.1927 91.841 24.374C91.841 24.544 91.7843 24.697 91.671 24.833C91.5577 24.9577 91.4047 25.02 91.212 25.02H87.336ZM87.336 27.366C87.1547 27.366 87.0017 27.3037 86.877 27.179C86.7637 27.043 86.707 26.89 86.707 26.72C86.707 26.55 86.7637 26.4027 86.877 26.278C87.0017 26.142 87.1547 26.074 87.336 26.074H91.212C91.4047 26.074 91.5577 26.142 91.671 26.278C91.7843 26.4027 91.841 26.55 91.841 26.72C91.841 26.89 91.7843 27.043 91.671 27.179C91.5577 27.3037 91.4047 27.366 91.212 27.366H87.336ZM89.376 32.007C89.8293 32.007 90.124 31.939 90.26 31.803C90.4073 31.6557 90.481 31.3383 90.481 30.851C90.481 30.3637 90.4073 30.0463 90.26 29.899C90.124 29.7517 89.8293 29.678 89.376 29.678C88.9227 29.678 88.6223 29.7517 88.475 29.899C88.339 30.0463 88.271 30.3637 88.271 30.851C88.271 31.3383 88.339 31.6557 88.475 31.803C88.6223 31.939 88.9227 32.007 89.376 32.007ZM110.983 32.721C110.836 32.5737 110.756 32.3923 110.745 32.177C110.745 31.9617 110.819 31.7803 110.966 31.633C111.453 31.1343 111.907 30.5337 112.326 29.831C112.745 29.1283 113.102 28.3973 113.397 27.638C112.842 27.4793 112.303 27.3547 111.782 27.264C111.261 27.1733 110.756 27.1053 110.269 27.06C109.816 27.9893 109.3 28.7487 108.722 29.338C108.144 29.9273 107.526 30.307 106.869 30.477C106.348 30.613 105.872 30.6357 105.441 30.545C105.01 30.443 104.665 30.2333 104.404 29.916C104.155 29.5987 104.03 29.1907 104.03 28.692C104.03 28.1253 104.206 27.6097 104.557 27.145C104.908 26.669 105.458 26.2893 106.206 26.006C106.965 25.7227 107.951 25.581 109.164 25.581H109.266C109.402 25.2297 109.532 24.85 109.657 24.442C109.782 24.034 109.895 23.6033 109.997 23.15C110.19 22.334 110.161 21.7957 109.912 21.535C109.674 21.263 109.181 21.1723 108.433 21.263C108.297 21.2743 108.121 21.297 107.906 21.331C107.691 21.3537 107.481 21.382 107.277 21.416C107.073 21.4387 106.914 21.4557 106.801 21.467C106.586 21.4783 106.399 21.416 106.24 21.28C106.081 21.144 105.991 20.9683 105.968 20.753C105.957 20.5377 106.019 20.3507 106.155 20.192C106.291 20.022 106.467 19.9313 106.682 19.92C106.897 19.8973 107.158 19.8747 107.464 19.852C107.77 19.818 108.042 19.7953 108.28 19.784C109.753 19.6933 110.739 19.9427 111.238 20.532C111.737 21.1213 111.827 22.1073 111.51 23.49C111.419 23.8753 111.317 24.255 111.204 24.629C111.102 24.9917 110.989 25.343 110.864 25.683C111.85 25.8077 112.842 25.9947 113.839 26.244C114.088 25.3373 114.219 24.5043 114.23 23.745C114.23 23.5297 114.304 23.3483 114.451 23.201C114.598 23.0537 114.78 22.98 114.995 22.98C115.21 22.9687 115.392 23.0367 115.539 23.184C115.698 23.3313 115.771 23.5127 115.76 23.728C115.749 24.204 115.703 24.6857 115.624 25.173C115.545 25.6603 115.443 26.1533 115.318 26.652C115.703 26.7653 116.083 26.89 116.457 27.026C116.831 27.1507 117.194 27.281 117.545 27.417C117.738 27.4963 117.874 27.638 117.953 27.842C118.044 28.0347 118.044 28.2273 117.953 28.42C117.874 28.624 117.732 28.7657 117.528 28.845C117.335 28.9243 117.143 28.9243 116.95 28.845C116.599 28.6977 116.247 28.5617 115.896 28.437C115.545 28.301 115.199 28.1763 114.859 28.063C114.519 28.9583 114.105 29.814 113.618 30.63C113.142 31.4347 112.626 32.126 112.071 32.704C111.924 32.8513 111.742 32.925 111.527 32.925C111.323 32.9363 111.142 32.8683 110.983 32.721ZM106.478 29.049C106.829 28.9583 107.186 28.743 107.549 28.403C107.912 28.063 108.263 27.5983 108.603 27.009C107.832 27.043 107.22 27.145 106.767 27.315C106.325 27.485 106.013 27.689 105.832 27.927C105.651 28.1537 105.56 28.3917 105.56 28.641C105.56 28.8223 105.634 28.9583 105.781 29.049C105.94 29.1283 106.172 29.1283 106.478 29.049ZM120.945 32.755C120.73 32.755 120.543 32.6757 120.384 32.517C120.237 32.3697 120.163 32.1883 120.163 31.973C120.163 31.7577 120.237 31.5763 120.384 31.429C120.543 31.2817 120.73 31.208 120.945 31.208H126.691V19.58C126.691 19.3307 126.77 19.1323 126.929 18.985C127.099 18.8377 127.297 18.764 127.524 18.764C127.751 18.764 127.943 18.8377 128.102 18.985C128.261 19.1323 128.34 19.3307 128.34 19.58V24.153H133.831C134.058 24.153 134.245 24.2323 134.392 24.391C134.551 24.5383 134.63 24.7253 134.63 24.952C134.63 25.1673 134.551 25.3543 134.392 25.513C134.245 25.6717 134.058 25.751 133.831 25.751H128.34V31.208H135.038C135.253 31.208 135.435 31.2817 135.582 31.429C135.741 31.5763 135.82 31.7577 135.82 31.973C135.82 32.1883 135.741 32.3697 135.582 32.517C135.435 32.6757 135.253 32.755 135.038 32.755H120.945ZM145.901 32.772C145.731 32.908 145.538 32.9703 145.323 32.959C145.108 32.9477 144.926 32.8627 144.779 32.704C144.632 32.534 144.564 32.3413 144.575 32.126C144.598 31.9107 144.688 31.7293 144.847 31.582C145.516 30.9927 146.014 30.3693 146.343 29.712C146.672 29.0433 146.887 28.2953 146.989 27.468C147.102 26.6407 147.159 25.6773 147.159 24.578V24.34C145.924 24.408 144.824 24.5327 143.861 24.714C143.657 24.748 143.464 24.7083 143.283 24.595C143.113 24.4703 143.005 24.306 142.96 24.102C142.926 23.8867 142.966 23.694 143.079 23.524C143.204 23.3427 143.368 23.235 143.572 23.201C144.037 23.1103 144.586 23.0367 145.221 22.98C145.856 22.912 146.502 22.8553 147.159 22.81V20.311C147.159 20.0957 147.233 19.9143 147.38 19.767C147.527 19.6083 147.709 19.529 147.924 19.529C148.139 19.529 148.321 19.6083 148.468 19.767C148.615 19.9143 148.689 20.0957 148.689 20.311V22.725C149.596 22.691 150.344 22.691 150.933 22.725C151.148 22.7363 151.324 22.8213 151.46 22.98C151.607 23.1273 151.67 23.3087 151.647 23.524C151.636 23.7393 151.551 23.9207 151.392 24.068C151.245 24.204 151.063 24.2663 150.848 24.255C150.236 24.221 149.516 24.221 148.689 24.255V24.578C148.689 25.7453 148.621 26.8277 148.485 27.825C148.349 28.811 148.077 29.7177 147.669 30.545C147.272 31.361 146.683 32.1033 145.901 32.772ZM140.291 32.296C140.076 32.3413 139.877 32.3073 139.696 32.194C139.526 32.0693 139.418 31.8993 139.373 31.684C139.237 31.004 139.129 30.1937 139.05 29.253C138.971 28.301 138.925 27.298 138.914 26.244C138.914 25.19 138.954 24.1473 139.033 23.116C139.112 22.0847 139.243 21.144 139.424 20.294C139.469 20.09 139.577 19.9313 139.747 19.818C139.928 19.6933 140.121 19.6593 140.325 19.716C140.54 19.7613 140.705 19.8747 140.818 20.056C140.931 20.226 140.965 20.413 140.92 20.617C140.75 21.4103 140.625 22.2943 140.546 23.269C140.478 24.2437 140.444 25.2353 140.444 26.244C140.455 27.2413 140.495 28.1877 140.563 29.083C140.642 29.9783 140.75 30.7433 140.886 31.378C140.931 31.5933 140.892 31.786 140.767 31.956C140.654 32.126 140.495 32.2393 140.291 32.296ZM153.177 20.753C153.064 20.8663 152.916 20.923 152.735 20.923C152.565 20.9117 152.423 20.8437 152.31 20.719C152.14 20.5263 151.953 20.3337 151.749 20.141C151.556 19.9483 151.364 19.7727 151.171 19.614C151.058 19.5233 150.99 19.4043 150.967 19.257C150.944 19.0983 150.984 18.9567 151.086 18.832C151.211 18.7073 151.347 18.645 151.494 18.645C151.653 18.645 151.8 18.6903 151.936 18.781C152.106 18.8943 152.31 19.0587 152.548 19.274C152.797 19.4893 153.013 19.682 153.194 19.852C153.319 19.9767 153.375 20.1297 153.364 20.311C153.364 20.481 153.302 20.6283 153.177 20.753ZM151.766 22.181C151.641 22.2943 151.488 22.3453 151.307 22.334C151.137 22.3227 150.995 22.249 150.882 22.113C150.565 21.7277 150.202 21.348 149.794 20.974C149.681 20.872 149.618 20.7473 149.607 20.6C149.596 20.4413 149.647 20.2997 149.76 20.175C149.873 20.0503 150.004 19.9937 150.151 20.005C150.31 20.0163 150.457 20.073 150.593 20.175C150.752 20.2883 150.95 20.4583 151.188 20.685C151.426 20.9117 151.63 21.1157 151.8 21.297C151.925 21.4217 151.981 21.5747 151.97 21.756C151.959 21.926 151.891 22.0677 151.766 22.181Z" fill="black"/>
<path d="M28.0234 14L20.5234 21.5H13.0234V31.5H20.5234L28.0234 39V14ZM32.0437 16.1616L31.6797 17.5199C35.7473 18.6098 38.5703 22.2887 38.5703 26.5C38.5703 30.7113 35.7473 34.3902 31.6797 35.4801L32.0437 36.8384C36.7195 35.5855 39.9766 31.3408 39.9766 26.5C39.9766 21.6591 36.7195 17.4145 32.0437 16.1616ZM31.073 19.7838L30.7091 21.1422C33.1375 21.7928 34.8203 23.9861 34.8203 26.5C34.8203 29.0139 33.1375 31.2072 30.7091 31.8578L31.073 33.2162C34.1095 32.4025 36.2266 29.6435 36.2266 26.5C36.2266 23.3565 34.1095 20.5975 31.073 19.7838ZM30.1024 23.4059L29.7386 24.7643C30.5273 24.9758 31.0703 25.6834 31.0703 26.5C31.0703 27.3166 30.5273 28.0242 29.7385 28.2357L30.1024 29.5941C31.4996 29.2197 32.4766 27.9464 32.4766 26.5C32.4766 25.0536 31.4996 23.7803 30.1024 23.4059Z" fill="#F2C254"/>
</svg>
